<svg version="1.2" xmlns="http://www.w3.org/2000/svg" viewBox="0 0 400 400" width="600" height="600"><style>.a{fill:#21fc8c;stroke:#1a37da;stroke-miterlimit:10}.b{fill:#c1694f}.c{fill:#d99e82}.d{fill:#662113}</style><path class="a" d="m107 238.1q0.7-13.7 0.7-27.5 0-23.9-2.1-50.8l-0.2 0.1q-0.2 0-0.3-0.3-0.1-0.3-0.1-0.5-0.7 1.3-1 6.6-0.2 5.2-0.4 13.9v3.8q-0.2-3.6-0.6-5.2l-0.9 2.5q-0.2-2 0.3-6.1 0.1-0.9 0.3-2.1 0.1-1.2 0.1-2.9 0-2.3-0.6-3.4l-0.9 1.3q-0.8-2.1-2-2.8l0.2 1.6-1 0.8-1-0.6-1.1-4.3q-1.1 0.8-1.9 2.1-0.8-1.4-1.2-3.4-0.3-2.1-0.4-2.8l-1.6 3.8q-0.2-0.6-0.6-1.4-0.5-0.9-0.6-1.4-1.6 1.2-1.9 4-0.7-1.4-1.9-1.5l-0.8 1.8-0.5-1.6q-1 4-1 12.6l0.1 6.4q0.1 1.8 0.1 4.9-2.2 0.1-6.6 0.1-1.4 0-5.6 0.1-4.2 0.1-7.7 0.4 1.3 0.4 2.7 0.4 0.3 0 1.8 0 1.5 0 2.7 0.5-0.9 0.5-3.3 1.2-2.4 0.7-3.5 1.3 0 1 1.3 1.5l-2.1 0.2q0-3.4 0.4-6.8 0.2-4.7 0.2-6.8 0-5.3-1-9-0.2-0.7-0.8-2.3-0.4-1.6-0.4-2.8-2.1 0-3-0.9l-1.4 2-1.1-2-2 1.1-0.2-1.2q-1.7-1.4-2.1-2.3l-1.2-0.4q0 2-1.1 3.2l-0.2-0.1-0.3 1.6-1-0.5v-0.1q-1.6-1.6-2.9-2.3-0.1 2.3-2.1 2.3-1.4 0-3.2-1.1l0.2 31q0 31.2 0.5 46.7 0.3-0.9 0.4-2 0.2-1.1 0.3-1.5 0.2-2.8 0.9-4.1 0 3.5 0.2 10.8 0.7-1.7 0.7-5.1 0-2.2 0.3-3.7 0.4-1.6 1.3-2.8 0.2 4.4 0.7 8.7 0 1.1 0.2 3.1l1.7-5.5q0.3 1.1 0.3 2.2 0.2 2.1 0.8 3.1l1.1-2.2 0.6 2.3q0.5-1.2 0.9-4.1l0.3 2q0.1-1.5 0.6-2.9 0.5-1.5 1.5-2 1.4 1 1.7 2.7 0.4 1.6 0.5 4.4l0.7-6.1q0 0.4 0 2.1 0 1.7 0.5 3 0.3-0.9 0.4-1.9 0.1-1.1 0.1-1.5 0.2-2.8 0.6-4 1 2.1 1.7 5.6 0.7-2.6 0.8-4 1.5 0.3 2.2 2.8 1.2-2.4 1.2-19.4 0-10.2-0.5-25.6l4-0.1q-1.2 1.4-1.3 2.4 0.6 0.4 1.5 0.6 1 0.1 1.4 0.2l-0.8 1.1h0.4q1.5 0 2.1 1l-0.6 0.5h0.1q0.7 1.1-1.8 1.7-2.6 0.4-2.9 0.6 1.3 0.1 4.1-0.2 2-0.2 3-0.2-1.9 0.9-5 1.3-0.5 0.2-1.5 0.4-0.9 0.1-1.6 0.3 2 0 3.4-0.1 1.5-0.1 2.5-0.2 4.8-0.5 7.2-0.5 3.4 0 5.2 0.4 0 20.5 0.5 35.3l0.7-2q0-0.1 0.7-3.6 0.7-3.6 1.6-1.5 0.3 0.9 1.2 5.2 0.7 4.1 1.3 6.4 0.8 2.3 2 2.8-0.1-4 0.7-8.2 1.1-0.5 1.6-0.5 1.5 0 2.2 1.1l0.5 3.7q0.1-0.8 0.4-2.7 0.5-1.9 1-3.5 0.3 0.7 0.7 2.4 0.3 1.7 1.1 2.5 0.3-0.7 0.3-2.4 0-2.1 0.7-2.9 0.1 1.2 0.6 2.5 0.6 1.3 0.8 1.9-0.1-1.2-0.1-3.8l0.1-5q0.1-1.7 0.1-5.1l0.7 2.2 0.3-4.4q0.6 2.5 0.9 4.3 0.7 3.7 1.3 5.7 0.5 1.9 1.8 3.4zm63.2-56.8q-4.4-1.8-7.9-3.3-3.4-1.7-3.7-2.9l1.8-1.2-8.5 0.8q-0.1-4.3 0.7-10.7-1-0.3-1.3-0.3-0.8 0-1.1 0.7l-0.3-0.8-0.4-0.2v-1.6q0-1 0.1-1.5l-0.4-2.1q-2.4-0.5-3.1-0.5-1.1 0-1.8 0.7-0.6 0.7-1.1 2.5-0.4-3.5-2.1-3.5-1.2 0-3.3 1.8l-0.2-1.3-0.4-0.1q-1.3 1-2.1 3.2l-2-1.9q-1.1 1.9-2.3 3.5l-0.9-3.1q0 1.3 0.2 3.9 0.2 2 0.3 5.2 0.1 3.1 0.1 7.2-3.8 0-11 0.8 1.7 0.5 2.5 0.9l-3.6 1.1q2 1.2 4.7 1.5-2.6 2.3-3.8 3.3l1.9 0.2-1.6 1.8 1.6 0.9q1.9 1.1 1.9 1.7 0 0.5-1.3 1-1.3 0.4-2 0.6v0.5q1.2 0.6 2.4 0.6 1 0 1.7-0.1 0.6-0.1 1.1-0.2 2.4-0.4 3.4-0.3 0.9 1.7 0.9 6.5 0 4.6-0.6 10.1-0.3 4.7-0.3 7.9 1 1 1.4 3.3-0.4-0.3-1.2-1-0.7-0.8-1.2-1.1l0.2 3.9q0.1 5.8 0.8 9.7 0.7 4 2.6 5.3-0.1-0.5-0.5-2.2-0.7-2.7-0.7-3.2 0.6 0.6 1.2 1.6 0.7 1 1.1 1.6 3.8 4.8 8.3 6.8 4.5 2 9.9 2 5.1 0 12.5-1.6-1.7-0.5-4.1-0.5 1.7-1 2.7-2.5 1.1-1.6 1.1-3.3 0-1.7-1.1-3.2l2.7-2q-1.3-1.9-1.3-3.9 0-1.6 0.9-2.9-0.7-1-1.6-1.3-0.9-0.3-2.4-0.3l-3 0.1q-3.5 0-4.9-1.9-1.6-2.2-1.6-8.3 0-2.5 0.1-4.3 0.1-1.9 0.2-3.2 0.3-4.6 0.2-7.2 0.5-0.9 2-0.9 1.5 0 4.8 1.1-1.3-0.7-2.5-1.8 1.8-0.2 2.5-0.2 1.7 0 2.6 0.1l2.4 0.1 1.6-0.1q0-1-0.8-3-0.8-1.7-0.9-3 2.1-0.2 2.9-0.6 0.9-0.5 0.9-1.7 0-0.8-0.3-1.9zm62.8 0q-4.4-1.7-7.9-3.3-3.4-1.6-3.6-2.8l1.7-1.2-8.4 0.7q-0.2-4.3 0.6-10.6-1-0.4-1.3-0.4-0.8 0-1.1 0.8l-0.2-0.9-0.5-0.1v-1.6q0-1 0.1-1.6l-0.4-2.1q-2.4-0.4-3.1-0.4-1.1 0-1.7 0.7-0.7 0.6-1.1 2.5-0.5-3.5-2.1-3.5-1.2 0-3.3 1.7l-0.2-1.2-0.5-0.1q-1.3 1-2.1 3.2l-2-2q-1.1 2-2.3 3.5l-0.8-3q0 1.3 0.2 3.9 0.1 2 0.2 5.2 0.1 3.1 0.1 7.1-3.7 0-11 0.9 1.8 0.5 2.5 0.9l-3.6 1.1q2 1.2 4.7 1.4-2.6 2.3-3.8 3.3l2 0.2-1.7 1.9 1.7 0.9q1.8 1.1 1.8 1.6 0 0.6-1.3 1-1.3 0.5-2 0.7v0.4q1.2 0.7 2.4 0.7 1 0 1.7-0.1 0.7-0.1 1.1-0.2 2.4-0.5 3.4-0.4 0.9 1.8 0.9 6.5 0 4.6-0.6 10.1-0.3 4.8-0.3 8 1 1 1.4 3.3-0.4-0.4-1.2-1-0.6-0.8-1.2-1.1l0.2 3.8q0.1 5.9 0.8 9.8 0.7 4 2.7 5.3-0.2-0.6-0.6-2.2-0.7-2.8-0.7-3.2 0.6 0.6 1.3 1.5 0.6 1 1.1 1.7 3.7 4.7 8.2 6.8 4.5 2 9.9 2 5.2 0 12.5-1.7-1.7-0.4-4-0.4 1.6-1 2.6-2.5 1.1-1.7 1.1-3.3 0-1.8-1.1-3.2l2.8-2q-1.4-2-1.4-4 0-1.5 0.9-2.8-0.6-1-1.6-1.3-0.9-0.4-2.3-0.4l-3.1 0.1q-3.4 0-4.9-1.8-1.6-2.2-1.6-8.4 0-2.4 0.1-4.3 0.1-1.8 0.2-3.2 0.3-4.6 0.2-7.1 0.5-0.9 2-0.9 1.6 0 4.9 1.1-1.4-0.8-2.6-1.9 1.8-0.2 2.6-0.2 1.6 0 2.5 0.1l2.4 0.1 1.7-0.1q0-1-0.9-2.9-0.8-1.7-0.9-3 2.1-0.2 3-0.7 0.8-0.4 0.8-1.6 0-0.8-0.3-1.9zm20.7 0.2q-0.4 1.8-0.4 3.9 0 2 0 2.4 2.3-0.2 4-2.4 1.8-2.2 2.5-4.9 1.2 0.5 1.6 1.6 0.6 1 0.9 2.7 0.4 1.9 0.9 2.8 0.4 0.7 1.4 1 0.5-2 0.8-4.8l0.8-0.2q2.5 0 2.5 6.5l-0.2 3.3q0.9-0.3 2-1.1 1.2-0.9 2-1.3 1 3.7 8 5.6-0.3-0.9-1.7-3.3-1.8-2.4-2-4-0.9-0.2-3-0.5-1.9-0.5-3.4-0.9-1.1-0.3-1.1-0.7 0-0.6 5.6-0.8 5.8-0.4 6.5-0.1-1.9-2.8-3.5-3.8-1.5-1.1-3.4-1.1-1.9 0-4.4 0.8-2.5 0.8-3 0.9 4.9-2.9 7.8-3.9 2.3-0.8 3-1.6 0.7-1 0.7-2.2 0-0.9 0.2-1.2 0.3-0.4 1.5-0.4 6.8 0 11.4 4.8 4.5 4.7 6.7 12.1 2.2 7.3 2.2 15.5 0 9.9-3 16.9-2.9 7-7.6 7-1.8 0-3.6-1.1l-0.8 2.1 0.4 2.1q-1.7 3.4-9 3.4-3.1 0-6.1-0.5-3.1-0.7-4.8-1.7l-0.2 5.8q-0.1 6.4-0.4 10.7-0.2 4.3-1.1 8.6-0.1-1.5-0.4-3.2-0.2-1.7-0.7-2.9l-0.6-0.5-1.3 6.9-1-8.6q-2 1.6-2.7 3.5-0.8 1.8-1.2 4.4-0.3 1.2-0.6 2.4-0.3 1.1-1 1.9-1.1-0.1-1.6-0.8-0.5-0.7-1-2-0.7-1.9-1.7-2.5l-3.3 1.6q0-2.5-1.4-3.6l-1.8 4.3q-0.8-5.3-0.8-12 0-3.7 0.1-6.5 0.1-2.8 0.2-4.7 0.1-1.6 0.2-3.8 0.1-2.2 0.1-5.1 0.1-4.8 0.1-14.1 0-13.2 0.1-22 0.3-8.9 1-17.7l3.9 8.9q0.2-0.2 1.3-1.4 1.1-1.2 1.6-2.6l1.4-0.4zm14.9 37.7q0.6 1 1.5 1 1.9 0 4.5-3.8 2.6-4 3.7-6.6-0.4-5-1.4-7.7-0.9-2.8-3.9-4.8h-4.6q0 0.7-0.4 4.2-0.1 0.9-0.6 4.6-0.3 3.8-0.3 6.7 0 5.3 1.5 6.4zm101.7 5.5q-0.7 0.9-1.5 2.2-0.7 1.3-1.6 2-0.9 0.7-2.8 1.4 2.8 3.9 2.8 6.2 0 0.5-0.1 0.9-0.5 1.4-5.6 2.2-5.2 0.6-13 0.6-8.4 0-17.1-0.5-8.5-0.6-11.2-1.2-2.3-0.6-3-1.3-0.6-0.8-0.7-2.1-0.1-1.4-0.8-2.1-0.5-0.8-2.6-1.2 0.1-3.1 0.5-4 0.5-0.9 1.4-0.9h1q1.6 0 2.6-1.5-0.8-0.8-1.8-0.8-0.7 0-2 0.7l-2.5-1.2q0.5-0.5 1.4-1.1 0.9-0.8 1.3-1.5l-0.2-0.4q-0.6 0.4-2.1 1.2-1.3 0.7-1-0.2 0.4-1.2 3-3.8 2.8-2.6 7.6-7 9.6-8.4 12-11.8l0.4-0.1q0.5-0.9 0.5-2.1 0-0.6-0.1-1.4-0.2-0.9-0.3-1.3-15.7 0-23.5-0.5l2.8-2.2q0.1-0.4-0.3-0.7-0.3-0.4-1.2-0.8-0.7-0.4-0.9-1.1l2.1-1.6q-0.4-3.2-1.7-5 0.2 0 3.8-0.7-0.3-0.7-1.2-1.5-0.9-0.8-1.3-1.3 0.4-0.5 2.1-1.2 0.7-0.4 2.1-1.2l-2.2-1 13.2-0.1q4.4-0.1 13.1-0.1 4.4 0 13.2 0.2l-1 0.4q2.2 1 4.4 1.3l-2.6 0.9q3.1 0.3 5.9 1.1 2.8 0.8 2.8 1.9 0 1.3-4.9 2.8 1.4 0.6 3.4 0.8 0.3 0.1 1.8 0.5 1.4 0.2 2.5 0.7 0.1 0 0.3 0.2 0.3 0.2 0.3 0.3 0 0.6-2.4 3-1.5 1.4-2 2.1 1.5 0 1.5 1.2 0 2.4-3.8 6.4-3.7 4-4 4.4l-9.6 14 5.1-5.8q5-5.6 8.8-10.3-4.5 8.3-14 19.5l2.5-0.2q10.6-0.9 13.7-0.9 2.9 0 4 0.2-0.1 0.4-5.3 1-5.4 0.7-6.4 1.2-0.3 0.2-0.3 0.7 0 0.3 0.4 0.4l13.7-1z"/><path class="b" d="m266 172.6c-0.8-0.5-1.5-4-0.9-4.4 0.7-0.4 0.7 0.9 2.3 2.4 1.5 1.5 6.4 0.9 7.7 1.3 1.3 0.5-6.4 2.6-9.1 0.7z"/><path class="c" d="m267.4 170.6c-1.4-5.6-0.7-8.7 0-10.7 1.4-3.7 11.3-11.7 18.4-14.3 1.9-0.6 7.8-1.6 11.2-1.6 0.6 2.3-1.2 6.7-1.6 7.5-1 1.8-3.6 4.3-8.7 9.5-0.2 0.3-5.1-0.5-5.3-0.2-0.3 0.3 4 1.6 3.7 1.9q-1.1 1.2-2.3 2.5c-0.1 0.2-8.3-0.9-8.4-0.7-0.3 0.3 7.5 1.8 7.2 2.1q-0.9 1.2-1.9 2.4c-1.8 2.2-12.3 1.6-12.3 1.6z"/><path class="b" d="m281.1 155.8c1.6 1 5.4 1.9 8.4 2.4 1.9-1.9 3.3-3.4 4.3-4.5-2.3-0.5-5.8-1.3-7.5-2.1l-0.8-0.4-4.9 4.2z"/><path class="d" d="m297.1 144.5q0-0.3-0.1-0.5-0.6 0-1.2 0c-3.5 0.2-8.3 1-10 1.6q-0.5 0.2-1.1 0.5-0.7 0.3-1.4 0.6c0.3 1.5 1.1 3.2 1.8 4q-2.6 2-4.8 4.1c-5.7 5.3-10.1 10.9-13.1 15.3q0.1 0.2 0.2 0.5c0 0 0.2 0 0.6 0 1.4-2.3 5.7-8.2 13.2-14.8q2.3-2.1 5.1-4.2c1.7 0.8 5.2 1.6 7.5 2.1q0.5-0.6 0.8-1 0.5-0.7 0.8-1.2c0.4-0.7 1.9-4.6 1.7-7z"/><path class="b" d="m297 144q-0.6 0-1.1 0c-4 1.9-7.5 4.2-10.8 6.7-0.7-0.8-1.5-2.5-1.8-4-1.5 0.7-3 1.6-4.5 2.5 0.3 2 0.9 4.4 1.5 5.6-11.5 10.6-17.7 22.8-17.7 23-0.2 0.2-0.1 0.5 0.2 0.6q0.1 0.1 0.2 0.1c0.2 0 0.4-0.1 0.4-0.3 0.2-0.2 12.2-23.9 33.7-33.7q0-0.3-0.1-0.5z"/></svg>